<?xml version="1.0" encoding="utf-8"?>
<!-- Generator: Adobe Illustrator 16.0.0, SVG Export Plug-In . SVG Version: 6.00 Build 0)  -->
<!DOCTYPE svg PUBLIC "-//W3C//DTD SVG 1.1//EN" "http://www.w3.org/Graphics/SVG/1.1/DTD/svg11.dtd">
<svg version="1.1" id="圖層_1" xmlns="http://www.w3.org/2000/svg" xmlns:xlink="http://www.w3.org/1999/xlink" x="0px" y="0px"
	 width="300px" height="60px" viewBox="0 0 300 60" enable-background="new 0 0 300 60" xml:space="preserve">
<g>
	<path fill="#1B6233" d="M48.935,29.615v-9.448L33.818,5.932c0,0-2.898-1.638-6.299,0.63C26.886,6.99,26.638,7.57,26.638,7.57
		L48.935,29.615z"/>
	<path fill="#1B6233" d="M24.57,29.615l-0.422,9.44l14.465,14.895c0,0,2.822,1.766,6.321-0.348c0.652-0.398,0.925-0.967,0.925-0.967
		L24.57,29.615z"/>
	<path fill="#EC6416" d="M43.53,5.36h18.068v30.878c0,0-0.375,3.186-3.164,6.895c-2.484,2.734-2.203,2.984-6.646,5.863
		c-0.349,0.014-0.986-0.404-1.291-0.672c-2.026-1.783-27.062-28.442-28.52-28.685s-3.241,4.051-3.241,6.887s0,21.472,0,21.472h7.901
		l4.091,6.076H12.742V23.769c0,0,0.164-4.396,3.125-8.146c2.327-3.748,6.026-5.553,6.026-5.553S50.174,38.596,50.822,39
		c0.648,0.406,3.97-1.59,4.375-6.047c0.178-4.303,0.162-22.087,0.162-22.087l-7.373,0.019L43.53,5.36z"/>
</g>
<g>
	<path fill="#EC6416" d="M87.813,2.927c-0.258-0.473-0.366-0.773-0.322-0.902c0.171-0.043,0.451,0.021,0.838,0.193
		c2.406,0.988,4.146,2.084,5.221,3.287c1.934,2.621,1.934,4.662,0,6.123c-1.504,1.547-2.771,2.965-3.803,4.254
		c-1.461,2.063-3.051,4.018-4.77,5.865c-0.773,0.773-1.096,1.289-0.967,1.547c0.171,0.215,0.923,0.107,2.256-0.322
		c5.585-2.148,10.72-3.352,15.404-3.609c-0.387-0.945-0.795-2.02-1.225-3.223c-0.602-1.805-0.237-2.492,1.096-2.063
		c0.902,0.516,1.761,0.967,2.578,1.354c2.965,1.461,4.641,3.287,5.027,5.479c0.171,0.988,0.107,1.74-0.193,2.256
		c0,0.773-0.215,1.504-0.645,2.191c-1.891,2.836-6.252,4.34-13.084,4.512c-0.215,0-0.301-0.064-0.258-0.193
		c0.042-0.129,0.129-0.215,0.258-0.258c3.695-1.204,6.123-2.536,7.283-3.997c0.601-0.773,0.88-1.311,0.838-1.611
		c0-0.387-0.151-0.924-0.451-1.611c-6.016,1.289-11.602,3.287-16.758,5.994c-2.836,1.333-4.963,2.536-6.381,3.61
		c-1.247,1.117-2.407,1.869-3.48,2.256c-0.731,0.258-1.375,0-1.934-0.773c-0.086-0.129-0.129-0.215-0.129-0.258
		c-2.793-4.255-2.965-6.446-0.516-6.575c0.773-0.172,2.063-0.859,3.867-2.063c3.223-3.223,6.466-8.25,9.732-15.082
		C88.458,6.858,88.629,4.731,87.813,2.927z M104.055,35.219c0.387,0.344,0.709,0.709,0.967,1.096
		c0.73,0.902,0.709,2.191-0.064,3.867c-3.008,5.328-4.061,8.443-3.158,9.346c0.73,0.773,1.096,1.375,1.096,1.805
		c0,0.814-0.344,1.225-1.031,1.225c-5.93-0.043-11.301,0.924-16.113,2.9c0.042,0.129,0.085,0.215,0.129,0.258
		c1.031,2.748,0.129,3.006-2.707,0.773c-1.504-1.461-2.858-4.277-4.061-8.443c-0.817-2.75-1.01-5.5-0.58-8.25
		c0.3-1.934,0.794-3.352,1.482-4.254c1.031-1.289,1.46-1.289,1.289,0c-0.086,0.645,0.085,1.934,0.516,3.867
		c5.113-1.848,10.333-3.996,15.662-6.445C99.543,31.975,101.735,32.727,104.055,35.219z M96.45,38.506
		c-5.715,3.137-10.334,4.297-13.857,3.48c0.387,0.816,1.031,3.287,1.934,7.412c2.019,0.258,3.953,0.129,5.801-0.387
		c3.094-0.902,4.919-1.762,5.479-2.578c1.203-2.02,2.127-4.146,2.771-6.381c0.3-1.16,0.3-1.826,0-1.998
		C98.104,37.84,97.395,37.99,96.45,38.506z"/>
	<path fill="#EC6416" d="M141.481,21.533c-0.086-0.258-0.129-0.472-0.129-0.645c-0.043-0.3-0.086-0.601-0.129-0.902
		c-1.16,0.817-2.858,1.74-5.092,2.771c-0.731,0.301-1.44-0.021-2.127-0.967c-0.946-1.46-1.611-2.664-1.998-3.609
		c-0.301-0.859-0.301-1.439,0-1.74c0.214-0.171,0.58-0.258,1.096-0.258c1.246,0.043,2.385-0.085,3.416-0.387
		c1.718-0.645,3.437-1.117,5.156-1.418c0.042-0.387,0.085-0.709,0.129-0.967c0.085-1.547-0.838-3.738-2.771-6.574
		c-0.344-0.516-0.387-0.988-0.129-1.418c0.258-0.343,0.923-0.429,1.998-0.258c2.792,0.473,4.641,1.418,5.543,2.836
		c0.73,1.204,0.967,2.922,0.709,5.156c3.094-1.16,5.093-1.998,5.996-2.514c0.041-0.085,0.129-0.129,0.258-0.129
		c0.17-1.632,0.277-3.437,0.322-5.414c0-1.203-0.258-1.89-0.773-2.063c-0.516-0.171-0.902-0.107-1.162,0.193
		c-0.301,0.43-0.473,0.366-0.516-0.193c-0.043-0.558,0.086-1.052,0.387-1.482c0.344-0.472,0.775-0.794,1.291-0.967
		c0.645-0.214,1.482-0.193,2.514,0.064c1.805,0.645,2.9,1.482,3.287,2.514c0.258,0.86,0.193,2.771-0.193,5.736
		c0.299-0.085,0.664-0.15,1.096-0.193c1.115-0.129,2.211,0.451,3.287,1.74c0.943,1.204,1.33,1.956,1.16,2.256
		c-0.604,0.731-2.924,1.504-6.961,2.32c-0.258,0.645-0.516,1.289-0.773,1.934c-0.645,1.16-2.215,3.051-4.707,5.672
		c1.375,0.043,3.631,1.504,6.77,4.383c3.908,3.911,7.818,6.791,11.73,8.637c4.037,1.848,7.238,4.125,9.604,6.832
		c0.686,0.732,0.387,1.119-0.902,1.16c-1.463-0.041-4.535-0.322-9.217-0.838c-3.01-0.773-6.961-4.211-11.859-10.313
		c-1.248-1.547-2.279-2.728-3.094-3.545c-1.463-1.46-3.504-2.32-6.125-2.578c-0.989-0.129-2.02-0.322-3.094-0.58
		c-1.977,1.934-4.318,4.769-7.025,8.508c-6.703,9.24-12.117,14.01-16.242,14.309c-1.16,0.043-1.397-0.215-0.709-0.773
		c6.445-5.629,12.439-12.912,17.982-21.85C140.643,24.09,141.309,22.608,141.481,21.533z M144.188,43.834
		c-1.461-0.041-2.6-0.473-3.416-1.289c-0.817-0.814-1.482-2.127-1.998-3.932c-0.258-0.814,0-1.137,0.773-0.967
		c1.074,0.301,3.287-0.15,6.639-1.354l-0.258-3.094c-0.172,0.043-0.451,0.41-0.838,1.096c-0.387,0.773-0.645,0.752-0.773-0.064
		c-0.129-2.191,0.214-3.674,1.031-4.448c0.343-0.258,0.923-0.3,1.74-0.129c2.363,0.516,3.738,1.289,4.125,2.321
		c0.086,0.387,0.064,1.16-0.064,2.32c0.043-0.041,0.086-0.064,0.129-0.064c0.602-0.129,1.375-0.17,2.322-0.129
		c2.146,0.258,3.307,1.031,3.48,2.32c0.17,1.119-0.516,1.998-2.063,2.643c-1.547,0.475-2.988,1.031-4.32,1.676
		c-0.129,1.289-0.064,4.986,0.193,11.086c-0.043,3.652-0.731,6.059-2.063,7.219c-0.473,0.344-0.795,0.516-0.967,0.516
		c-0.172-0.043-0.409-0.279-0.709-0.709c-2.75-3.352-4.705-5.994-5.865-7.928c-0.086,0.043-0.129,0.086-0.129,0.129
		c-1.805,1.805-2.793,3.223-2.965,4.254c-0.602,1.633-0.989,2.643-1.16,3.029c-0.215,0.301-0.344,0.451-0.387,0.451
		c-0.086,0.043-0.451-0.387-1.096-1.289c-2.02-3.008-2.493-5.113-1.418-6.316c0.258-0.387,0.451-0.924,0.58-1.611
		c0.3-1.418,0.666-2.793,1.096-4.125c0.258-0.859,0.537-0.943,0.838-0.258c0.472,0.902,0.859,1.828,1.16,2.771
		c0.171,0.559,0.343,0.861,0.516,0.902c0.085,0.043,0.387-0.021,0.902-0.193c2.063-0.773,3.953-1.375,5.672-1.805
		c0.429-0.129,0.645-0.105,0.645,0.064c-0.043,0.301-0.215,0.539-0.516,0.709c-1.247,0.902-2.256,1.764-3.029,2.578
		c1.332,0.645,2.728,1.117,4.189,1.418c0.3,0.043,0.472,0.043,0.516,0c0.171-0.172,0.193-0.967,0.064-2.385
		c-0.086-0.645-0.193-2.793-0.322-6.445C144.982,43.49,144.23,43.834,144.188,43.834z M145.735,22.113
		c0.129,0.086,0.214,0.215,0.258,0.387c1.074-0.3,2.019-0.387,2.836-0.258c1.934-2.234,3.16-4.468,3.675-6.703
		c-0.303-0.085-0.539-0.15-0.711-0.193c-0.387-0.129-0.73-0.193-1.031-0.193c-1.719,0-3.116,0.451-4.189,1.354
		C146.315,18.01,146.035,19.879,145.735,22.113z M154.566,44.865c-0.217-0.814,0.02-1.137,0.709-0.967
		c2.836,0.902,4.854,1.998,6.059,3.287c1.33,1.461,1.975,2.965,1.934,4.512c-0.045,1.16-0.322,2.148-0.838,2.965
		c-0.387,0.301-0.797,0.451-1.225,0.451c-0.387,0-0.797-0.279-1.225-0.838c-0.561-0.73-1.248-1.375-2.063-1.934
		c-0.947-0.645-1.869-1.375-2.771-2.191c-0.346-0.299-0.496-0.516-0.451-0.645c0.129-0.086,0.322-0.105,0.58-0.064
		c1.072-0.258,1.676-0.516,1.805-0.773C157.121,47.68,156.283,46.412,154.566,44.865z"/>
	<path fill="#EC6416" d="M209.895,15.371c-0.129,0.258-0.258,0.474-0.387,0.645c-0.861,0.431-1.74,0.451-2.643,0.064
		c-1.805,0.603-2.9,1.031-3.287,1.289c-2.279,0.688-4.383,0.838-6.316,0.451c-1.289-0.3-2.578-0.235-3.867,0.193
		c-0.516,1.763-0.99,3.223-1.418,4.383c-0.732,1.676-1.57,3.954-2.514,6.832c-1.031,2.537-1.828,3.029-2.385,1.482
		c-1.59-4.295-1.848-7.412-0.773-9.345c1.975-3.136,3.094-5.241,3.352-6.316c0.258-1.503,0.516-2.663,0.773-3.48
		c0.344-0.858,0.924-0.622,1.74,0.709c0.686,1.075,1.096,2.127,1.225,3.158c1.934-1.073,5.092-1.869,9.475-2.385
		c0.086-0.042,0.15-0.042,0.193,0c-0.129-0.129-0.217-0.258-0.258-0.387c-0.088-0.171-0.107-0.278-0.064-0.322
		c0.17-0.042,0.322-0.042,0.451,0c0.516,0.129,0.967,0.173,1.354,0.129c0.129-0.042,0.215-0.085,0.258-0.129
		c0.129-0.472-0.088-1.374-0.645-2.707c-0.559-1.418-1.119-3.243-1.676-5.479c-0.516-1.934-0.064-2.62,1.354-2.063
		c1.201,1.333,2.406,2.536,3.609,3.609c2.063,2.063,3.094,4.125,3.094,6.188c1.975-0.3,4.469-0.451,7.477-0.451
		c2.922-0.214,4.898,0,5.93,0.645c2.619,1.72,4.318,3.223,5.092,4.512c0.814,1.204,0.967,2.191,0.451,2.965
		c-0.217,0.302-0.797,0.431-1.74,0.387c-1.074-0.042-2.473,0.129-4.189,0.516c-2.924,0.603-5.93,0.753-9.023,0.451
		c0.299,0.773,0.428,1.698,0.387,2.771c-0.043,1.547,0.064,2.514,0.322,2.9c0.299,0.258,1.439,0.58,3.416,0.967
		c1.031,0.387,1.266,1.376,0.709,2.964c-0.559,1.676-1.354,2.428-2.385,2.256c-0.773,0.129-1.611,0.346-2.514,0.645
		c-3.867,1.764-7.371,3.029-10.506,3.803c-0.559,0.129-0.861,0-0.902-0.387c-0.088-0.428,0.064-0.709,0.451-0.838
		c2.063-0.943,3.996-2.063,5.801-3.352c1.547-1.16,2.297-1.889,2.256-2.192c0-0.773-0.346-1.438-1.031-1.998
		c-0.773-0.645-1.441-1.761-1.998-3.352c0.129-0.687,0.451-1.374,0.967-2.063c0.73-1.46,0.258-2.643-1.418-3.545
		c-0.645-0.343-0.881-0.665-0.709-0.967c0.344-0.558,0.924-0.815,1.74-0.773c2.063-0.129,3.566,0.387,4.512,1.547
		c0.17,0.173,0.322,0.387,0.451,0.645c3.566-1.073,6.123-2.341,7.67-3.803c0.686-0.687,0.943-1.225,0.773-1.611
		c-0.088-0.258-0.732-0.407-1.934-0.451c-2.363-0.042-4.793,0.151-7.283,0.58C212.063,14.835,210.926,15.071,209.895,15.371z
		 M207.574,37.543c0.902-0.428,1.633-0.428,2.191,0c0.344,0.043,0.666,0.129,0.967,0.258c1.504,0.773,2.449,1.869,2.836,3.287
		c0.215,0.732,0.193,1.248-0.064,1.547c-0.902,0.688-2.215,2.063-3.932,4.125c-0.99,1.203-1.805,2.15-2.449,2.836
		c1.717-0.129,3.438-0.193,5.156-0.193c2.406-0.041,4.705-0.258,6.896-0.645c1.246-0.215,2.256-0.129,3.029,0.258
		c2.104,0.732,3.48,2.277,4.125,4.641c0.17,0.602,0.17,1.096,0,1.482c-0.217,0.43-0.539,0.645-0.967,0.645
		c-1.119,0.043-2.473-0.193-4.061-0.709c-10.271-2.922-19.98-2.063-29.133,2.578c-1.461,0.516-2.514,0.58-3.158,0.193
		c-1.805-1.074-2.859-2.32-3.158-3.738c-0.172-0.773-0.107-1.289,0.193-1.547c0.344-0.258,0.73-0.322,1.16-0.193
		c0.73,0.215,2.084,0,4.061-0.645c1.975-0.645,5.564-1.225,10.764-1.74c1.031-1.504,2.32-3.674,3.867-6.51
		c-4.125,1.418-6.703,1.783-7.734,1.096c-1.676-1.117-2.514-2.664-2.514-4.641c0.086-0.814,0.408-1.375,0.967-1.676
		c0.645-0.344,0.902-0.299,0.773,0.129c-0.129,0.516-0.043,0.902,0.258,1.16c0.17,0.172,0.73,0.258,1.676,0.258
		C202.375,39.5,205.125,38.746,207.574,37.543z M199.131,20.463c2.232,0.773,3.824,1.698,4.77,2.771
		c0.902,1.204,0.879,2.385-0.064,3.545c-3.182,3.867-5.953,6.791-8.314,8.766c-0.816,0.645-1.441,0.236-1.869-1.225
		c-0.902-3.694-0.645-5.479,0.773-5.35c0.602-0.042,1.482-0.987,2.643-2.836c1.246-2.276,1.482-3.738,0.709-4.383
		C196.445,20.205,196.896,19.776,199.131,20.463z"/>
	<path fill="#EC6416" d="M281.484,21.472c-3.395,0.043-5.801,0.344-7.219,0.902c-1.633,0.43-2.535,0.624-2.707,0.58
		c-0.301-0.129-0.602-0.601-0.902-1.418c-1.332-2.105-1.998-4.963-1.998-8.572c-0.516,0.817-0.967,1.611-1.354,2.385
		c-3.523,5.5-9.346,10.119-17.467,13.857c-0.43,5.372-0.623,12.526-0.58,21.464c-0.043,2.148-0.473,2.748-1.289,1.805
		c-2.105-2.363-3.18-4.082-3.223-5.156c-0.086-0.43,0.258-4.125,1.031-11.086c0.816-9.024,0.752-15.856-0.193-20.497
		c-0.301-1.46-0.473-2.599-0.516-3.416c-0.043-0.773,0.537-0.751,1.74,0.064c0.129,0.086,0.215,0.151,0.258,0.193
		c0-0.171,0.021-0.343,0.064-0.516c0.301-1.503,0.709-2.341,1.225-2.514c1.461-1.589,4.125-3.029,7.992-4.318
		c1.117-0.343,2.986,0.645,5.607,2.965c0.387,0.43,0.494,1.182,0.322,2.256c-0.645,2.407-1.031,4.727-1.16,6.961
		c-0.086,1.118-0.258,2.02-0.516,2.707c1.203-0.859,2.342-1.697,3.416-2.514c1.375-1.16,2.922-3.223,4.641-6.188
		c0.086-2.578,0.408-4.919,0.967-7.025c0.129-0.558,0.279-0.751,0.451-0.58c0.645,0.645,1.117,1.182,1.418,1.611
		c0.344-0.387,0.773-0.709,1.289-0.967c3.781-2.234,6.896-3.029,9.346-2.385c2.449,0.731,4.061,2.32,4.834,4.77
		c0.344,0.989,0.387,1.698,0.129,2.127c-0.172,0.258-0.322,0.795-0.451,1.611c-1.762,9.668-1.676,23.075,0.258,40.22
		c0.43,3.824,0.301,6.209-0.387,7.154c-0.215,0.258-0.473,0.258-0.773,0c-1.977-1.977-3.438-3.287-4.383-3.932
		c-1.504-1.031-2.857-2.215-4.061-3.545c-2.02-2.406-2.965-3.803-2.836-4.189c0.129-0.215,0.279-0.258,0.451-0.129
		c2.578,1.16,4.855,1.934,6.832,2.32c0.344,0.086,0.537,0.064,0.58-0.064c0.172-0.172,0.236-0.537,0.193-1.096
		c-0.559-7.262-0.902-14.588-1.031-21.979C281.441,23.964,281.441,22.675,281.484,21.472z M254.027,13.866
		c1.289,0.086,2.342,0.473,3.158,1.16c-0.043-1.418,0.021-2.578,0.193-3.48c0.129-0.816,0.107-1.482-0.064-1.998
		c-0.215-0.472-0.473-0.709-0.773-0.709c-0.387-0.042-0.988,0.258-1.805,0.902c-2.063,1.461-3.609,1.998-4.641,1.611
		c-0.516-0.214-0.967-0.193-1.354,0.064c-0.172,0.086-0.516,0.645-1.031,1.676c0.645,0.559,1.117,1.16,1.418,1.805
		c0,0.086,0.021,0.151,0.064,0.193C251.084,14.232,252.695,13.824,254.027,13.866z M250.225,19.151
		c0.816-0.429,1.482-0.902,1.998-1.418c0.086-0.171,0.15-0.343,0.193-0.516c-0.473-0.558-1.375-0.859-2.707-0.902
		C249.924,17.003,250.096,17.949,250.225,19.151z M257.186,21.987c-0.172-0.558-0.258-1.547-0.258-2.965
		c-0.43,0.043-2.643,0.258-6.639,0.645c0,1.289-0.021,2.9-0.064,4.834C252.889,23.728,255.209,22.89,257.186,21.987z
		 M270.914,48.479c-0.301,0.516-0.666,0.752-1.096,0.709c-0.73-0.172-1.826-1.676-3.287-4.512c-2.406,1.117-3.889,1.826-4.447,2.127
		c-0.73,0.344-1.354,0.064-1.869-0.838c-0.086-0.215-0.15-0.344-0.193-0.387c-2.02-3.051-2.965-5.049-2.836-5.994
		c0.387-3.652,0.451-6.381,0.193-8.186c-0.387-1.333-0.602-2.407-0.645-3.224c-0.043-0.773,0.516-0.751,1.676,0.064
		c0.773,0.516,1.375,1.053,1.805,1.612c1.16-3.051,3.223-5.028,6.188-5.93c1.676-0.601,3.115-0.516,4.318,0.258
		c0.43,0.344,0.838,0.667,1.225,0.967c1.117,0.817,1.611,4.641,1.482,11.474C273.213,41.775,272.375,45.729,270.914,48.479z
		 M268.916,36.297c0-1.418-0.15-3.996-0.451-7.735c-0.043-0.429-0.129-0.666-0.258-0.709c-0.129-0.042-0.344-0.042-0.645,0
		c-0.43,0.129-1.182,0.28-2.256,0.451c-1.117,0.129-2.643,0.86-4.576,2.192c0.473,0.903,0.773,1.827,0.902,2.772
		c2.363-1.16,4.082-1.525,5.156-1.096c0.43,0.172,0.859,0.666,1.289,1.482c0.344,0.688,0.494,1.182,0.451,1.482
		s-0.344,0.537-0.902,0.709c-2.535,1.246-4.061,2.02-4.576,2.32c-0.516,0.215-0.967,0.172-1.354-0.129
		c-0.086,0.945-0.107,2.02-0.064,3.223c1.375-0.473,2.707-0.773,3.996-0.902c1.16,0,1.998,0.645,2.514,1.934
		c0.344-0.172,0.516-0.451,0.516-0.838C268.83,39.605,268.916,37.887,268.916,36.297z M281.549,16.831
		c0.129-3.265,0.322-6.337,0.58-9.217c0.086-0.859-0.086-1.439-0.516-1.74c-0.988-0.429-2.213-0.107-3.674,0.967
		c-0.688,0.516-2.578,0.516-5.672,0c0.43,1.204,0.494,2.643,0.193,4.318c3.094-1.332,5.113-1.74,6.059-1.225
		c0.344,0.172,0.709,0.602,1.096,1.289c0.301,0.602,0.43,1.031,0.387,1.289c-0.043,0.215-0.279,0.409-0.709,0.58
		c-2.922,1.547-4.705,2.536-5.35,2.965c-0.688,0.387-1.289,0.172-1.805-0.645c-0.129-0.171-0.215-0.279-0.258-0.322
		c-0.043,0.946,0.064,1.827,0.322,2.643c0.172,0.602,0.473,1.031,0.902,1.289c0.258,0.086,0.602,0,1.031-0.258
		C276.199,17.906,278.67,17.261,281.549,16.831z"/>
</g>
</svg>
