<?xml version="1.0" encoding="utf-8"?>
<!-- Generator: Adobe Illustrator 16.0.0, SVG Export Plug-In . SVG Version: 6.00 Build 0)  -->
<!DOCTYPE svg PUBLIC "-//W3C//DTD SVG 1.1//EN" "http://www.w3.org/Graphics/SVG/1.1/DTD/svg11.dtd">
<svg version="1.1" id="圖層_1" xmlns="http://www.w3.org/2000/svg" xmlns:xlink="http://www.w3.org/1999/xlink" x="0px" y="0px"
	 width="200px" height="150px" viewBox="0 0 200 150" enable-background="new 0 0 200 150" xml:space="preserve">
<g>
	<path fill="none" stroke="#040000" stroke-miterlimit="10" d="M84.849,41.144"/>
	<path fill="#1B6233" d="M109.687,40.856v-7.029L98.44,23.238c0,0-2.155-1.219-4.686,0.468c-0.471,0.318-0.655,0.75-0.655,0.75
		L109.687,40.856z"/>
	<path fill="#1B6233" d="M91.56,40.856l-0.313,7.023l10.762,11.081c0,0,2.099,1.313,4.701-0.258c0.486-0.298,0.689-0.72,0.689-0.72
		L91.56,40.856z"/>
	<path fill="#EC6416" d="M105.665,22.812h13.442v22.972c0,0-0.28,2.369-2.353,5.129c-1.852,2.033-1.642,2.221-4.944,4.363
		c-0.262,0.008-0.735-0.303-0.962-0.501c-1.506-1.327-20.132-21.159-21.217-21.34c-1.085-0.18-2.411,3.014-2.411,5.124
		c0,2.11,0,15.974,0,15.974H93.1l3.042,4.521h-13.38V36.508c0,0,0.121-3.271,2.323-6.061c1.733-2.789,4.484-4.13,4.484-4.13
		s21.039,21.22,21.522,21.521c0.482,0.303,2.953-1.182,3.255-4.498c0.131-3.202,0.121-16.433,0.121-16.433l-5.485,0.015
		L105.665,22.812z"/>
</g>
<path fill="#EC6416" d="M14.946,80.009c-0.192-0.352-0.272-0.575-0.24-0.671c0.127-0.033,0.336,0.016,0.623,0.143
	c1.791,0.735,3.085,1.551,3.884,2.445c1.439,1.951,1.439,3.468,0,4.555c-1.118,1.154-2.061,2.208-2.828,3.167
	c-1.087,1.535-2.27,2.989-3.549,4.362c-0.576,0.576-0.815,0.959-0.719,1.152c0.127,0.161,0.688,0.079,1.679-0.241
	c4.155-1.597,7.974-2.493,11.459-2.684c-0.287-0.705-0.591-1.504-0.91-2.398c-0.448-1.342-0.177-1.854,0.814-1.535
	c0.672,0.385,1.312,0.719,1.918,1.006c2.208,1.088,3.453,2.448,3.741,4.077c0.127,0.735,0.081,1.297-0.144,1.68
	c0,0.574-0.161,1.117-0.479,1.63c-1.408,2.111-4.652,3.228-9.734,3.356c-0.16,0-0.225-0.048-0.192-0.146
	c0.032-0.095,0.096-0.158,0.192-0.188c2.748-0.897,4.554-1.89,5.417-2.977c0.447-0.574,0.654-0.974,0.624-1.197
	c0-0.29-0.111-0.687-0.336-1.201c-4.476,0.962-8.631,2.447-12.467,4.464c-2.11,0.989-3.693,1.884-4.746,2.684
	c-0.928,0.832-1.792,1.391-2.59,1.679c-0.545,0.191-1.023,0-1.439-0.576c-0.064-0.095-0.097-0.159-0.097-0.191
	c-2.077-3.166-2.204-4.796-0.383-4.893c0.576-0.127,1.534-0.639,2.877-1.533c2.398-2.396,4.812-6.138,7.241-11.22
	C15.425,82.936,15.553,81.353,14.946,80.009z M27.029,104.032c0.291,0.256,0.529,0.528,0.72,0.816
	c0.542,0.669,0.528,1.627-0.049,2.875c-2.237,3.966-3.02,6.28-2.349,6.954c0.544,0.575,0.815,1.021,0.815,1.342
	c0,0.606-0.256,0.91-0.767,0.91c-4.412-0.029-8.409,0.688-11.988,2.158c0.031,0.095,0.063,0.159,0.095,0.192
	c0.768,2.046,0.097,2.237-2.014,0.575c-1.118-1.086-2.126-3.18-3.021-6.28c-0.608-2.046-0.752-4.093-0.432-6.14
	c0.224-1.437,0.591-2.492,1.103-3.163c0.766-0.959,1.086-0.959,0.958,0c-0.063,0.48,0.063,1.438,0.384,2.877
	c3.804-1.374,7.688-2.972,11.652-4.796C23.673,101.618,25.303,102.179,27.029,104.032z M21.37,106.476
	c-4.251,2.334-7.688,3.198-10.309,2.592c0.288,0.606,0.767,2.444,1.438,5.513c1.503,0.192,2.941,0.098,4.317-0.286
	c2.301-0.671,3.66-1.312,4.075-1.917c0.894-1.504,1.583-3.085,2.062-4.748c0.224-0.862,0.224-1.359,0-1.487
	C22.601,105.983,22.074,106.094,21.37,106.476z"/>
<path fill="#EC6416" d="M67.611,93.854c-0.064-0.194-0.096-0.354-0.096-0.479c-0.032-0.226-0.063-0.446-0.096-0.674
	c-0.863,0.609-2.125,1.297-3.788,2.065c-0.544,0.225-1.071-0.018-1.582-0.723c-0.705-1.085-1.199-1.979-1.487-2.684
	c-0.224-0.64-0.224-1.072,0-1.296c0.16-0.128,0.432-0.19,0.815-0.19c0.927,0.031,1.774-0.065,2.542-0.286
	c1.278-0.482,2.557-0.833,3.835-1.059c0.032-0.284,0.064-0.527,0.096-0.719c0.063-1.15-0.623-2.779-2.062-4.891
	c-0.256-0.383-0.287-0.733-0.096-1.055c0.192-0.255,0.688-0.319,1.487-0.19c2.077,0.35,3.453,1.054,4.124,2.107
	c0.543,0.896,0.719,2.175,0.528,3.839c2.301-0.865,3.787-1.488,4.459-1.872c0.032-0.063,0.096-0.095,0.192-0.095
	c0.127-1.214,0.207-2.557,0.24-4.028c0-0.895-0.191-1.406-0.577-1.535c-0.382-0.127-0.672-0.078-0.862,0.145
	c-0.225,0.321-0.353,0.271-0.383-0.145c-0.034-0.415,0.063-0.781,0.287-1.103c0.257-0.352,0.576-0.591,0.958-0.72
	c0.482-0.159,1.104-0.143,1.872,0.049c1.343,0.48,2.158,1.103,2.446,1.87c0.191,0.639,0.143,2.062-0.144,4.267
	c0.224-0.063,0.494-0.11,0.815-0.143c0.831-0.097,1.646,0.336,2.444,1.295c0.704,0.896,0.99,1.453,0.863,1.678
	c-0.447,0.543-2.173,1.119-5.179,1.726c-0.191,0.48-0.383,0.96-0.574,1.439c-0.481,0.862-1.647,2.269-3.502,4.22
	c1.023,0.032,2.702,1.118,5.036,3.26c2.908,2.91,5.817,5.05,8.728,6.427c3.003,1.376,5.386,3.066,7.144,5.083
	c0.51,0.544,0.286,0.83-0.672,0.862c-1.086-0.032-3.373-0.242-6.857-0.625c-2.24-0.576-5.178-3.131-8.824-7.67
	c-0.926-1.151-1.694-2.029-2.301-2.638c-1.087-1.086-2.606-1.728-4.557-1.918c-0.735-0.1-1.502-0.238-2.301-0.433
	c-1.471,1.439-3.212,3.547-5.226,6.33c-4.987,6.875-9.015,10.425-12.083,10.648c-0.864,0.028-1.039-0.163-0.527-0.58
	c4.795-4.186,9.254-9.604,13.377-16.256C66.988,95.755,67.482,94.654,67.611,93.854z M69.625,110.443
	c-1.087-0.031-1.935-0.352-2.542-0.959c-0.607-0.604-1.102-1.581-1.486-2.926c-0.191-0.606,0-0.844,0.576-0.717
	c0.799,0.224,2.444-0.11,4.939-1.01l-0.191-2.299c-0.13,0.028-0.337,0.304-0.625,0.814c-0.288,0.573-0.479,0.56-0.575-0.046
	c-0.096-1.633,0.159-2.737,0.767-3.31c0.254-0.191,0.687-0.224,1.295-0.097c1.757,0.383,2.78,0.959,3.068,1.727
	c0.064,0.286,0.048,0.86-0.048,1.726c0.032-0.032,0.063-0.046,0.096-0.046c0.447-0.098,1.022-0.127,1.728-0.098
	c1.596,0.191,2.459,0.767,2.589,1.725c0.126,0.834-0.385,1.487-1.537,1.967c-1.149,0.354-2.221,0.768-3.213,1.245
	c-0.094,0.959-0.047,3.714,0.144,8.249c-0.031,2.716-0.543,4.51-1.533,5.37c-0.354,0.258-0.593,0.383-0.72,0.383
	c-0.127-0.028-0.304-0.208-0.527-0.526c-2.047-2.49-3.5-4.458-4.364-5.896c-0.064,0.028-0.095,0.061-0.095,0.098
	c-1.343,1.34-2.078,2.393-2.207,3.16c-0.447,1.213-0.735,1.965-0.863,2.255c-0.16,0.227-0.256,0.339-0.288,0.339
	c-0.064,0.028-0.335-0.29-0.815-0.964c-1.501-2.237-1.854-3.802-1.054-4.696c0.191-0.29,0.336-0.687,0.432-1.197
	c0.224-1.058,0.494-2.078,0.815-3.07c0.191-0.641,0.399-0.703,0.622-0.193c0.352,0.671,0.64,1.36,0.863,2.06
	c0.127,0.417,0.256,0.645,0.384,0.675c0.064,0.033,0.288-0.017,0.671-0.146c1.534-0.573,2.94-1.019,4.221-1.342
	c0.318-0.095,0.479-0.078,0.479,0.044c-0.033,0.229-0.161,0.405-0.383,0.53c-0.928,0.671-1.678,1.312-2.254,1.921
	c0.99,0.477,2.029,0.83,3.117,1.054c0.223,0.032,0.352,0.032,0.383,0c0.128-0.127,0.144-0.72,0.049-1.773
	c-0.064-0.478-0.144-2.081-0.24-4.798C70.216,110.189,69.657,110.443,69.625,110.443z M70.775,94.284
	c0.096,0.065,0.16,0.159,0.191,0.286c0.8-0.221,1.503-0.286,2.111-0.19c1.438-1.662,2.349-3.323,2.733-4.986
	c-0.223-0.063-0.401-0.111-0.528-0.145c-0.288-0.096-0.544-0.144-0.768-0.144c-1.278,0-2.318,0.335-3.116,1.007
	C71.206,91.233,70.999,92.621,70.775,94.284z M77.346,111.212c-0.16-0.605,0.016-0.845,0.528-0.72
	c2.11,0.672,3.611,1.487,4.508,2.448c0.99,1.084,1.469,2.204,1.438,3.354c-0.032,0.863-0.241,1.598-0.624,2.207
	c-0.287,0.219-0.591,0.33-0.909,0.33c-0.289,0-0.592-0.203-0.911-0.621c-0.417-0.54-0.929-1.021-1.536-1.438
	c-0.704-0.479-1.39-1.024-2.062-1.629c-0.256-0.224-0.368-0.384-0.335-0.481c0.096-0.063,0.239-0.079,0.432-0.046
	c0.797-0.191,1.247-0.385,1.343-0.577C79.248,113.308,78.624,112.362,77.346,111.212z"/>
<path fill="#EC6416" d="M129.969,89.265c-0.095,0.195-0.192,0.354-0.287,0.482c-0.64,0.32-1.295,0.336-1.965,0.047
	c-1.344,0.448-2.158,0.767-2.449,0.958c-1.692,0.516-3.259,0.628-4.696,0.335c-0.959-0.221-1.919-0.172-2.878,0.146
	c-0.383,1.312-0.736,2.397-1.054,3.258c-0.545,1.249-1.169,2.946-1.87,5.087c-0.767,1.886-1.359,2.252-1.775,1.102
	c-1.184-3.198-1.374-5.513-0.575-6.952c1.47-2.335,2.301-3.903,2.495-4.699c0.189-1.119,0.382-1.982,0.573-2.592
	c0.257-0.638,0.688-0.462,1.295,0.529c0.51,0.802,0.816,1.583,0.911,2.348c1.438-0.797,3.789-1.389,7.05-1.775
	c0.063-0.028,0.11-0.028,0.144,0c-0.096-0.095-0.162-0.19-0.192-0.286c-0.063-0.127-0.081-0.206-0.047-0.239
	c0.126-0.029,0.239-0.029,0.334,0c0.384,0.096,0.72,0.128,1.007,0.096c0.098-0.027,0.16-0.063,0.191-0.096
	c0.097-0.349-0.064-1.021-0.479-2.013c-0.417-1.057-0.831-2.414-1.246-4.078c-0.385-1.435-0.048-1.947,1.008-1.533
	c0.894,0.995,1.79,1.889,2.685,2.688c1.534,1.533,2.3,3.067,2.3,4.603c1.471-0.223,3.324-0.334,5.563-0.334
	c2.175-0.163,3.644,0,4.411,0.479c1.949,1.276,3.213,2.397,3.787,3.356c0.607,0.897,0.72,1.63,0.337,2.204
	c-0.159,0.226-0.592,0.32-1.296,0.286c-0.797-0.028-1.834,0.1-3.114,0.386c-2.175,0.448-4.413,0.56-6.714,0.337
	c0.222,0.573,0.32,1.262,0.287,2.061c-0.032,1.149,0.047,1.87,0.239,2.155c0.224,0.191,1.071,0.434,2.542,0.72
	c0.766,0.29,0.944,1.025,0.527,2.208c-0.416,1.245-1.007,1.806-1.774,1.679c-0.576,0.093-1.199,0.258-1.869,0.481
	c-2.879,1.308-5.484,2.251-7.815,2.827c-0.418,0.093-0.64,0-0.672-0.29c-0.064-0.314,0.047-0.526,0.336-0.621
	c1.534-0.703,2.973-1.535,4.314-2.496c1.15-0.864,1.709-1.402,1.677-1.629c0-0.575-0.254-1.069-0.767-1.486
	c-0.573-0.478-1.071-1.311-1.485-2.494c0.097-0.512,0.335-1.021,0.72-1.535c0.543-1.082,0.192-1.966-1.057-2.637
	c-0.478-0.256-0.652-0.492-0.526-0.72c0.257-0.414,0.688-0.605,1.294-0.573c1.535-0.095,2.653,0.286,3.357,1.15
	c0.128,0.127,0.24,0.286,0.334,0.478c2.654-0.797,4.558-1.738,5.707-2.828c0.514-0.51,0.704-0.911,0.573-1.197
	c-0.06-0.194-0.541-0.303-1.437-0.339c-1.758-0.031-3.563,0.115-5.417,0.433C131.583,88.866,130.736,89.046,129.969,89.265z
	 M128.243,105.763c0.672-0.317,1.213-0.317,1.631,0c0.254,0.028,0.494,0.096,0.717,0.189c1.121,0.579,1.823,1.393,2.111,2.446
	c0.159,0.546,0.143,0.932-0.048,1.15c-0.672,0.516-1.647,1.536-2.925,3.071c-0.735,0.891-1.343,1.599-1.821,2.107
	c1.278-0.095,2.556-0.14,3.835-0.14c1.79-0.031,3.5-0.194,5.131-0.48c0.927-0.164,1.679-0.099,2.251,0.19
	c1.567,0.544,2.59,1.695,3.07,3.452c0.128,0.445,0.128,0.816,0,1.102c-0.159,0.319-0.398,0.479-0.719,0.479
	c-0.831,0.034-1.838-0.144-3.021-0.526c-7.64-2.174-14.864-1.536-21.674,1.918c-1.086,0.385-1.868,0.434-2.351,0.147
	c-1.342-0.801-2.126-1.728-2.349-2.78c-0.128-0.581-0.081-0.964,0.144-1.155c0.256-0.193,0.543-0.237,0.863-0.143
	c0.543,0.159,1.551,0,3.021-0.479c1.472-0.478,4.141-0.911,8.009-1.293c0.768-1.119,1.727-2.737,2.876-4.845
	c-3.067,1.054-4.986,1.324-5.754,0.813c-1.245-0.83-1.87-1.98-1.87-3.451c0.065-0.604,0.303-1.021,0.721-1.249
	c0.479-0.254,0.67-0.22,0.574,0.097c-0.095,0.385-0.031,0.675,0.193,0.862c0.126,0.131,0.541,0.191,1.246,0.191
	C124.376,107.218,126.422,106.658,128.243,105.763z M121.961,93.056c1.661,0.575,2.846,1.264,3.548,2.063
	c0.671,0.895,0.655,1.774-0.046,2.638c-2.367,2.876-4.428,5.052-6.187,6.521c-0.608,0.477-1.072,0.173-1.39-0.913
	c-0.671-2.749-0.482-4.072,0.573-3.978c0.448-0.032,1.104-0.735,1.966-2.114c0.928-1.688,1.104-2.78,0.529-3.257
	C119.964,92.863,120.298,92.545,121.961,93.056z"/>
<path fill="#EC6416" d="M192.704,93.805c-2.523,0.032-4.314,0.258-5.371,0.673c-1.214,0.318-1.886,0.465-2.013,0.43
	c-0.224-0.095-0.447-0.446-0.67-1.054c-0.992-1.568-1.488-3.692-1.488-6.377c-0.384,0.608-0.718,1.198-1.008,1.774
	c-2.621,4.092-6.952,7.53-12.994,10.309c-0.318,3.993-0.462,9.316-0.431,15.97c-0.031,1.598-0.353,2.044-0.96,1.34
	c-1.564-1.757-2.365-3.038-2.396-3.834c-0.065-0.322,0.191-3.066,0.766-8.249c0.608-6.71,0.56-11.797-0.141-15.25
	c-0.228-1.085-0.354-1.936-0.386-2.54c-0.031-0.574,0.399-0.559,1.295,0.048c0.098,0.066,0.16,0.111,0.192,0.146
	c0-0.13,0.016-0.258,0.048-0.385c0.223-1.119,0.527-1.741,0.911-1.87c1.086-1.185,3.068-2.254,5.945-3.212
	c0.831-0.255,2.222,0.479,4.172,2.206c0.288,0.319,0.367,0.876,0.239,1.675c-0.479,1.793-0.767,3.521-0.862,5.183
	c-0.065,0.83-0.191,1.499-0.384,2.013c0.894-0.641,1.742-1.262,2.543-1.869c1.022-0.864,2.172-2.398,3.45-4.603
	c0.063-1.917,0.304-3.663,0.718-5.227c0.099-0.417,0.209-0.561,0.338-0.434c0.478,0.478,0.831,0.879,1.056,1.198
	c0.256-0.287,0.575-0.524,0.958-0.721c2.812-1.662,5.131-2.251,6.952-1.77c1.821,0.54,3.021,1.726,3.598,3.547
	c0.256,0.733,0.286,1.261,0.096,1.579c-0.13,0.196-0.241,0.593-0.337,1.202c-1.311,7.19-1.245,17.166,0.193,29.921
	c0.319,2.845,0.223,4.619-0.288,5.321c-0.161,0.191-0.353,0.191-0.577,0c-1.468-1.471-2.556-2.445-3.26-2.926
	c-1.12-0.766-2.126-1.647-3.021-2.638c-1.503-1.788-2.204-2.828-2.109-3.114c0.097-0.163,0.208-0.194,0.335-0.095
	c1.919,0.862,3.612,1.435,5.084,1.725c0.254,0.064,0.398,0.044,0.429-0.05c0.129-0.127,0.175-0.396,0.146-0.813
	c-0.415-5.402-0.67-10.854-0.768-16.352C192.674,95.658,192.674,94.7,192.704,93.805z M172.278,88.148
	c0.958,0.061,1.742,0.352,2.351,0.863c-0.033-1.055,0.015-1.917,0.144-2.59c0.096-0.608,0.079-1.104-0.048-1.487
	c-0.163-0.351-0.354-0.524-0.577-0.524c-0.286-0.035-0.735,0.189-1.342,0.668c-1.533,1.086-2.688,1.487-3.453,1.199
	c-0.384-0.159-0.719-0.142-1.006,0.05c-0.129,0.063-0.384,0.478-0.769,1.246c0.48,0.413,0.83,0.861,1.056,1.344
	c0,0.06,0.016,0.109,0.049,0.143C170.089,88.42,171.288,88.114,172.278,88.148z M169.448,92.078
	c0.607-0.317,1.104-0.672,1.487-1.055c0.063-0.127,0.112-0.253,0.144-0.384c-0.352-0.412-1.023-0.637-2.015-0.669
	C169.224,90.483,169.353,91.185,169.448,92.078z M174.629,94.19c-0.129-0.417-0.193-1.149-0.193-2.207
	c-0.319,0.032-1.966,0.191-4.94,0.477c0,0.959-0.015,2.16-0.047,3.599C171.432,95.483,173.157,94.859,174.629,94.19z
	 M184.841,113.897c-0.225,0.383-0.495,0.558-0.815,0.53c-0.543-0.13-1.358-1.249-2.444-3.361c-1.792,0.832-2.896,1.36-3.31,1.586
	c-0.544,0.256-1.006,0.044-1.391-0.627c-0.065-0.157-0.112-0.256-0.144-0.286c-1.504-2.269-2.206-3.755-2.108-4.459
	c0.286-2.716,0.334-4.749,0.144-6.089c-0.29-0.992-0.449-1.792-0.481-2.399c-0.032-0.573,0.384-0.557,1.249,0.048
	c0.573,0.385,1.021,0.784,1.341,1.201c0.862-2.271,2.397-3.742,4.603-4.411c1.248-0.449,2.32-0.385,3.212,0.191
	c0.32,0.254,0.625,0.494,0.912,0.716c0.831,0.607,1.199,3.453,1.104,8.535C186.549,108.911,185.927,111.851,184.841,113.897z
	 M183.354,104.834c0-1.054-0.112-2.972-0.336-5.754c-0.031-0.318-0.096-0.494-0.191-0.526c-0.095-0.032-0.257-0.032-0.479,0
	c-0.321,0.095-0.881,0.208-1.677,0.334c-0.833,0.095-1.969,0.641-3.405,1.631c0.351,0.673,0.573,1.36,0.671,2.063
	c1.758-0.865,3.036-1.132,3.835-0.817c0.32,0.131,0.641,0.498,0.96,1.105c0.255,0.51,0.365,0.879,0.335,1.104
	c-0.031,0.221-0.256,0.4-0.67,0.527c-1.889,0.923-3.022,1.499-3.406,1.728c-0.382,0.158-0.719,0.127-1.007-0.098
	c-0.064,0.705-0.082,1.503-0.047,2.396c1.023-0.351,2.014-0.574,2.973-0.673c0.862,0,1.487,0.481,1.869,1.441
	c0.257-0.127,0.384-0.335,0.384-0.621C183.29,107.297,183.354,106.015,183.354,104.834z M192.753,90.353
	c0.097-2.43,0.239-4.714,0.431-6.856c0.063-0.637-0.063-1.07-0.382-1.294c-0.736-0.317-1.647-0.082-2.733,0.72
	c-0.513,0.384-1.919,0.384-4.22,0c0.318,0.893,0.366,1.965,0.144,3.214c2.301-0.994,3.804-1.296,4.507-0.914
	c0.257,0.13,0.526,0.448,0.814,0.958c0.224,0.446,0.319,0.769,0.289,0.959c-0.032,0.163-0.209,0.307-0.528,0.435
	c-2.175,1.148-3.499,1.886-3.98,2.203c-0.511,0.289-0.959,0.13-1.341-0.477c-0.097-0.128-0.162-0.208-0.191-0.24
	c-0.032,0.701,0.046,1.36,0.239,1.964c0.126,0.448,0.351,0.768,0.671,0.96c0.19,0.064,0.447,0,0.766-0.192
	C188.772,91.151,190.61,90.675,192.753,90.353z"/>
</svg>
